<?xml version="1.0" standalone="no"?><!DOCTYPE svg PUBLIC "-//W3C//DTD SVG 1.1//EN" "http://www.w3.org/Graphics/SVG/1.1/DTD/svg11.dtd"><svg t="1682848684805" class="icon" viewBox="0 0 1024 1024" version="1.1" xmlns="http://www.w3.org/2000/svg" p-id="2636" xmlns:xlink="http://www.w3.org/1999/xlink" width="200" height="200"><path d="M912.21875 642.3125H891.6875V210.03125c0-10.5-6.9375-22.40625-17.4375-22.40625H152.9375c-10.5 0-20.625 11.90625-20.625 22.40625V642.3125H114.96875C104.46875 642.3125 94.8125 655.0625 94.8125 665.5625v113.90625c0 10.5 9.65625 15.65625 20.15625 15.65625H170.75v22.3125c0 10.5 8.25 18.9375 18.75 18.9375s18.75-8.53125 18.75-18.9375V795.125h607.5v22.3125c0 10.5 8.25 18.9375 18.75 18.9375s18.75-8.53125 18.75-18.9375V795.125h58.96875c10.5 0 16.96875-5.15625 16.96875-15.65625V665.5625c0-10.5-6.46875-23.25-16.96875-23.25zM170.75 224.1875h682.5v253.6875c-17.8125-20.4375-37.5-34.3125-75.9375-38.53125v-39.46875c0-20.90625-15-40.6875-35.90625-40.6875H551.5625c-20.90625 0-37.96875 17.0625-37.96875 37.96875 0-20.90625-17.0625-37.96875-37.96875-37.96875H285.78125c-20.90625 0-39.09375 19.6875-39.09375 40.6875v37.96875c0 0.5625 0.28125 0.9375 0.28125 1.5-29.625 4.21875-58.40625 18.09375-76.21875 38.625V224.1875z m303.75 210H284.1875v-37.5h190.3125v37.5z m265.3125 0H549.5v-37.5h190.3125v37.5zM170.75 570.6875c0-52.3125 43.78125-98.0625 96.09375-98.0625h493.5c52.3125 0 92.90625 45.75 92.90625 98.0625V642.3125H170.75v-71.625zM891.6875 757.625H132.3125v-76.875h759.375v76.875z" p-id="2637"></path></svg>