<?xml version="1.0" standalone="no"?><!DOCTYPE svg PUBLIC "-//W3C//DTD SVG 1.1//EN" "http://www.w3.org/Graphics/SVG/1.1/DTD/svg11.dtd"><svg t="1683816336270" class="icon" viewBox="0 0 1228 1024" version="1.1" xmlns="http://www.w3.org/2000/svg" p-id="12842" xmlns:xlink="http://www.w3.org/1999/xlink" width="153.5" height="128"><path d="M1078.477 976.077H150.323a136.653 136.653 0 0 1-136.499-136.5V184.423a136.653 136.653 0 0 1 136.5-136.499h928.153a136.653 136.653 0 0 1 136.499 136.5v655.155a136.653 136.653 0 0 1-136.5 136.499zM150.323 102.502c-45.158 0-81.92 36.813-81.92 81.92v655.156c0 45.107 36.762 81.92 81.92 81.92h928.154c45.158 0 81.92-36.813 81.92-81.92V184.422c0-45.107-36.762-81.92-81.92-81.92H150.323zM924.98 539.29h-136.5a95.744 95.744 0 0 1-95.54-95.54V307.251a95.744 95.744 0 0 1 95.54-95.539h136.5a95.744 95.744 0 0 1 95.538 95.488v136.5a95.744 95.744 0 0 1-95.539 95.538z m-136.5-273a40.96 40.96 0 0 0-40.96 40.96v136.5c0 22.527 18.33 40.96 40.96 40.96h136.5c22.63 0 40.96-18.433 40.96-40.96v-136.5a40.96 40.96 0 0 0-40.96-40.96h-136.5zM666.931 648.91H227.328a26.01 26.01 0 0 1-25.856-25.907v-2.816c0-14.336 11.674-25.908 25.856-25.908h439.654c14.336 0 25.908 11.725 25.908 25.908v2.816a26.06 26.06 0 0 1-26.01 25.907z m0 163.789H227.328a26.01 26.01 0 0 1-25.856-25.856v-2.868c0-14.336 11.674-25.907 25.856-25.907h439.654c14.336 0 25.908 11.725 25.908 25.907v2.868a26.06 26.06 0 0 1-26.01 25.856z" p-id="12843"></path></svg>