<?xml version="1.0" standalone="no"?><!DOCTYPE svg PUBLIC "-//W3C//DTD SVG 1.1//EN" "http://www.w3.org/Graphics/SVG/1.1/DTD/svg11.dtd"><svg t="1683442912038" class="icon" viewBox="0 0 1024 1024" version="1.1" xmlns="http://www.w3.org/2000/svg" p-id="12086" width="128" height="128" xmlns:xlink="http://www.w3.org/1999/xlink"><path d="M157.013333 85.333333s307.2 365.226667 93.866667 756.053334l286.72-134.826667C546.133333 662.186667 566.613333 233.813333 157.013333 85.333333z" fill="#1ab394" p-id="12087"></path><path d="M378.88 194.56s192.853333 109.226667 213.333333 493.226667l146.773334-69.973334c-3.413333-209.92-155.306667-385.706667-360.106667-423.253333zM76.8 873.813333c134.826667 32.426667 273.066667 32.426667 407.893333 0 261.12-51.2 421.546667 6.826667 460.8 58.026667 0 0-128-76.8-384-25.6-209.92 44.373333-377.173333 49.493333-484.693333-32.426667z" fill="#1ab394" p-id="12088"></path><path d="M781.653333 827.733333c-13.653333-49.493333-6.826667-102.4 20.48-146.773333 6.826667-6.826667 13.653333-32.426667-20.48-18.773333-34.133333 13.653333-307.2 128-460.8 197.973333 61.44 8.533333 126.293333-8.533333 180.906667-20.48 64.853333-13.653333 187.733333-23.893333 279.893333-11.946667z" fill="#1ab394" p-id="12089"></path></svg>